<?xml version="1.0" standalone="no"?>
<!DOCTYPE svg PUBLIC "-//W3C//DTD SVG 20010904//EN"
 "http://www.w3.org/TR/2001/REC-SVG-20010904/DTD/svg10.dtd">
<svg version="1.0" xmlns="http://www.w3.org/2000/svg"
 width="300.000000pt" height="300.000000pt" viewBox="0 0 300.000000 300.000000"
 preserveAspectRatio="xMidYMid meet">
<metadata>
Created by potrace 1.10, written by Peter Selinger 2001-2011
</metadata>
<g transform="translate(0.000000,300.000000) scale(0.100000,-0.100000)"
fill="#000000" stroke="none">
<path d="M400 2990 c0 -6 9 -28 20 -50 11 -22 20 -48 20 -59 0 -11 4 -22 9
-25 5 -3 12 -20 15 -38 4 -18 11 -53 16 -78 8 -41 9 -39 5 22 -2 37 -8 75 -13
85 -5 10 -15 36 -21 58 -20 66 -33 95 -42 95 -5 0 -9 -5 -9 -10z"/>
<path d="M734 2966 c-12 -18 -24 -45 -28 -59 -3 -14 -29 -62 -56 -107 -28 -45
-50 -86 -50 -91 0 -13 -54 -111 -93 -169 -17 -25 -39 -57 -49 -72 -10 -16 -15
-28 -11 -28 9 0 19 12 51 61 9 15 36 54 59 86 52 74 218 415 201 413 -2 -1
-12 -16 -24 -34z"/>
<path d="M1700 2981 c5 -11 10 -37 10 -58 l0 -38 -21 25 c-15 18 -19 20 -15 7
3 -10 6 -23 6 -28 0 -5 9 -9 21 -9 15 0 19 -5 15 -15 -3 -8 -1 -15 4 -15 5 0
10 -10 12 -22 4 -20 3 101 -1 155 -1 10 -9 17 -21 17 -17 0 -19 -3 -10 -19z"/>
<path d="M2520 2990 c0 -6 6 -26 14 -45 11 -24 13 -49 7 -82 -4 -27 -6 -59 -6
-73 3 -66 6 -80 15 -80 6 0 10 31 10 74 0 41 4 86 9 99 12 32 -10 111 -33 115
-9 2 -16 -2 -16 -8z"/>
<path d="M2668 2971 c-15 -16 -32 -41 -38 -56 -12 -33 -12 -35 0 -35 6 0 10 5
10 11 0 7 16 34 35 60 39 54 35 65 -7 20z"/>
<path d="M2748 2944 c-24 -30 -54 -71 -68 -89 -14 -19 -31 -34 -37 -35 -7 0
-13 -4 -13 -9 0 -6 12 -6 30 0 17 6 30 16 30 23 0 7 12 23 26 37 28 26 94 113
94 123 0 19 -24 -1 -62 -50z"/>
<path d="M1530 2970 c0 -11 -4 -20 -9 -20 -5 0 -14 -20 -20 -44 -6 -25 -20
-51 -31 -59 -11 -8 -17 -17 -13 -20 11 -11 23 -8 23 6 0 8 12 24 26 38 14 13
23 31 21 40 -5 17 9 49 21 49 4 0 18 -22 31 -49 17 -38 20 -53 12 -68 -10 -20
-5 -59 10 -79 5 -6 6 -13 3 -17 -7 -7 14 -47 26 -47 12 0 80 -70 80 -83 0 -5
-8 -6 -17 -2 -31 13 -70 18 -54 7 10 -7 11 -14 2 -31 -14 -25 -6 -24 -89 -6
-37 8 -86 16 -109 18 -23 2 -48 8 -55 15 -17 14 -69 19 -85 9 -16 -10 -29 17
-38 75 -8 55 -48 99 -96 104 -26 3 -29 1 -20 -10 9 -11 6 -15 -13 -18 -18 -4
-32 2 -51 22 -24 25 -37 56 -13 32 20 -20 29 -13 11 8 -27 31 -69 26 -109 -14
-34 -34 -43 -56 -24 -56 6 0 10 -11 10 -25 0 -29 -28 -45 -41 -24 -7 11 -9 9
-9 -6 0 -11 -5 -27 -11 -35 -8 -12 -9 -8 -6 15 5 28 4 29 -9 10 -8 -11 -13
-29 -10 -40 3 -11 6 -26 6 -33 0 -7 4 -11 9 -7 5 3 12 -4 16 -15 18 -56 85
-104 156 -113 32 -4 36 -2 31 15 -2 10 -1 18 4 17 23 -4 45 2 39 11 -3 6 -17
7 -30 4 -20 -5 -25 0 -40 45 -9 28 -22 51 -29 51 -7 0 -35 -7 -62 -15 -27 -8
-50 -15 -52 -15 -1 0 3 10 9 23 11 20 11 21 -5 7 -16 -13 -18 -12 -14 10 2 21
11 27 50 35 25 5 49 13 52 16 3 3 -3 31 -15 63 -11 32 -19 60 -17 61 2 2 14 5
27 7 22 3 27 -4 46 -52 17 -45 25 -54 42 -52 26 4 39 -44 15 -57 -14 -8 -12
-17 11 -71 15 -34 27 -69 27 -78 0 -11 9 -6 32 17 44 45 58 76 58 128 0 44 -1
45 -27 40 -16 -3 -37 -8 -49 -12 -15 -5 -23 0 -32 19 -10 22 -9 27 6 35 17 9
47 14 70 12 6 0 12 -10 12 -22 0 -11 4 -18 9 -14 5 3 12 2 14 -3 13 -19 17
-95 8 -128 -8 -28 -7 -41 3 -56 8 -11 17 -15 20 -10 3 6 0 13 -6 15 -8 3 -6 6
5 6 11 1 17 9 17 25 0 21 5 24 43 27 39 4 43 2 39 -15 -4 -15 -1 -18 15 -14
12 3 20 0 20 -7 0 -7 -6 -11 -13 -8 -6 2 -15 0 -19 -6 -4 -7 2 -10 17 -7 13 3
26 5 30 5 4 1 16 10 26 21 15 17 23 18 53 10 18 -6 49 -10 66 -10 18 0 33 -5
33 -11 0 -6 -8 -8 -19 -4 -22 7 -43 -15 -32 -33 6 -10 11 -10 21 3 7 8 25 15
41 15 19 0 29 5 29 15 0 29 33 34 71 10 26 -17 39 -35 48 -66 7 -24 15 -52 18
-62 4 -16 2 -17 -14 -9 -14 8 -27 6 -51 -10 -18 -11 -32 -22 -32 -24 0 -5 33
7 46 17 5 5 20 6 31 3 20 -6 29 -22 39 -69 3 -10 8 -22 13 -25 4 -3 16 -30 26
-60 9 -30 23 -61 31 -69 24 -26 28 15 9 77 -28 89 -28 90 -33 63 -3 -22 -5
-21 -21 15 -10 22 -21 56 -25 77 -4 20 -21 70 -37 110 -67 161 -80 211 -56
220 6 2 9 8 4 12 -4 5 -20 -4 -36 -19 -32 -31 -51 -28 -51 9 0 13 -4 27 -10
30 -14 9 -12 51 3 64 11 8 13 5 9 -19 -3 -21 1 -32 12 -36 23 -9 30 1 13 17
-7 7 -11 23 -9 36 2 13 -1 23 -7 23 -6 0 -11 13 -11 29 0 21 -6 32 -20 36 -11
3 -28 17 -39 31 -23 29 -31 30 -31 4z m-300 -319 c0 -21 -28 -81 -38 -81 -19
1 -52 44 -52 68 0 11 71 41 83 35 4 -2 7 -12 7 -22z m-195 -71 c16 -32 20 -60
7 -60 -16 0 -89 39 -102 54 -11 14 -9 16 8 16 12 0 24 5 27 10 12 20 45 10 60
-20z"/>
<path d="M2426 2944 c7 -83 63 -284 79 -284 5 0 16 -10 24 -21 12 -20 11 -21
-8 -16 -32 8 -34 -9 -4 -28 25 -17 25 -19 9 -31 -20 -14 -13 -58 7 -51 21 7
17 127 -6 170 -11 22 -35 95 -52 164 -36 136 -57 178 -49 97z"/>
<path d="M1402 2934 c-15 -51 -2 -67 15 -19 7 21 9 43 5 47 -5 5 -14 -8 -20
-28z"/>
<path d="M624 2937 c-11 -12 -40 -71 -63 -132 -24 -60 -47 -115 -53 -122 -5
-7 -8 -18 -6 -25 6 -18 52 66 73 132 22 71 44 121 63 143 23 25 10 29 -14 4z"/>
<path d="M1823 2943 c-24 -8 -43 -21 -43 -28 0 -10 13 -6 45 12 25 13 45 27
45 29 0 2 -1 4 -2 3 -2 0 -22 -7 -45 -16z"/>
<path d="M1340 2877 c0 -17 26 -47 41 -47 6 0 8 -4 5 -8 -5 -8 115 -102 130
-102 2 0 17 -11 31 -25 15 -13 29 -23 31 -20 8 7 -10 26 -49 51 -53 33 -85 60
-141 118 -29 29 -48 42 -48 33z"/>
<path d="M933 2843 c-31 -40 -53 -76 -53 -90 0 -4 16 15 36 42 61 86 72 116
17 48z"/>
<path d="M1660 2860 c0 -5 7 -10 15 -10 8 0 15 -5 15 -11 0 -5 -4 -7 -10 -4
-5 3 -10 2 -10 -4 0 -15 20 -25 31 -14 14 14 -2 53 -22 53 -11 0 -19 -4 -19
-10z"/>
<path d="M1752 2799 c3 -22 -1 -34 -14 -43 -19 -13 -18 -17 13 -119 26 -82 38
-107 53 -112 20 -5 20 -6 3 -19 -17 -13 -18 -19 -7 -53 7 -21 16 -42 21 -47 5
-6 9 -20 9 -32 0 -17 4 -21 21 -17 11 3 18 11 15 18 -2 7 0 17 5 22 6 6 4 10
-6 10 -8 0 -15 -5 -15 -10 0 -5 -6 -4 -14 2 -9 8 -14 29 -12 59 1 43 3 47 26
45 14 0 55 -18 90 -40 53 -31 65 -42 62 -61 -2 -12 3 -29 11 -37 13 -13 16
-13 27 0 11 13 19 9 59 -24 84 -72 131 -120 122 -125 -4 -3 -7 -19 -5 -36 3
-21 -1 -30 -11 -30 -8 0 -14 -6 -13 -12 2 -7 -4 -12 -13 -12 -9 1 -16 -4 -16
-11 0 -7 7 -11 15 -8 12 5 12 3 1 -15 -8 -12 -18 -21 -24 -21 -27 3 -37 -2
-31 -17 8 -21 -11 -44 -37 -44 -31 0 -8 -17 33 -24 33 -7 34 -6 15 9 -19 15
-19 16 3 37 12 13 22 17 22 10 0 -22 20 -12 32 16 7 15 27 50 45 79 l34 51
-32 45 c-36 52 -170 167 -193 167 -9 0 -16 8 -16 19 0 27 -27 48 -213 169 -23
16 -40 36 -45 56 -9 31 -8 134 1 142 2 3 53 -19 113 -48 60 -30 128 -61 152
-70 69 -27 35 2 -47 39 -132 60 -200 95 -212 109 -19 23 -32 16 -27 -17z m108
-275 c0 -13 -66 26 -68 40 -3 15 2 14 32 -9 20 -15 36 -29 36 -31z"/>
<path d="M2876 2768 c3 -24 1 -62 -4 -85 -14 -59 -1 -64 15 -6 18 69 17 133
-2 133 -11 0 -13 -9 -9 -42z"/>
<path d="M2666 2716 c-10 -19 -29 -45 -42 -57 -13 -12 -24 -29 -24 -38 0 -23
98 96 100 122 1 18 -17 4 -34 -27z"/>
<path d="M2784 2685 c4 -35 13 -66 22 -75 15 -14 16 -13 9 10 -4 14 -10 44
-14 68 -12 66 -24 64 -17 -3z"/>
<path d="M1040 2706 c0 -15 32 -76 40 -76 13 0 13 27 0 35 -5 3 -10 15 -10 26
0 10 -7 19 -15 19 -8 0 -15 -2 -15 -4z"/>
<path d="M2091 2646 c16 -13 171 -85 162 -74 -7 7 -29 21 -50 31 -21 10 -51
25 -66 33 -26 12 -57 20 -46 10z"/>
<path d="M900 2569 c0 -9 7 -30 15 -45 21 -41 19 -50 -15 -64 -33 -14 -61 -50
-38 -50 7 0 37 15 66 33 l53 33 -26 28 c-13 15 -31 39 -39 54 -10 17 -15 21
-16 11z"/>
<path d="M2816 2545 c31 -41 34 -42 27 -12 -8 29 -22 47 -40 47 -10 0 -6 -10
13 -35z"/>
<path d="M1463 2551 c-1 -12 2 -21 6 -21 16 0 19 -39 4 -44 -23 -9 -26 -7 -20
16 6 20 5 20 -11 4 -16 -16 -16 -18 1 -27 18 -10 18 -12 0 -32 -16 -19 -16
-20 0 -8 15 12 17 11 17 -3 0 -9 7 -16 15 -16 18 0 20 16 3 23 -8 3 -6 6 5 6
11 1 17 9 17 24 0 20 4 22 40 19 24 -3 40 0 40 7 0 6 -12 8 -32 5 -23 -4 -29
-3 -19 4 9 7 10 12 2 16 -6 4 -11 3 -11 -2 0 -6 -7 -12 -15 -16 -11 -4 -14 1
-13 20 2 21 6 24 25 19 13 -3 23 -1 23 5 0 5 -8 10 -17 10 -10 0 -27 3 -38 6
-16 4 -21 0 -22 -15z"/>
<path d="M2420 2565 c0 -3 7 -22 16 -43 10 -20 19 -45 21 -56 9 -50 60 -182
105 -276 28 -58 75 -157 105 -220 70 -148 113 -220 133 -220 12 0 12 2 2 9
-15 9 -133 255 -224 466 -33 77 -64 145 -68 150 -3 6 -12 24 -18 40 -6 17 -17
44 -23 60 -7 17 -13 35 -14 41 -7 33 -17 54 -26 54 -5 0 -9 -2 -9 -5z"/>
<path d="M1201 2530 c-1 -8 -10 -21 -21 -28 -12 -7 -18 -17 -15 -22 3 -6 1
-10 -4 -10 -6 0 -11 6 -11 14 0 7 -10 16 -22 19 -21 5 -21 5 -5 -7 25 -19 21
-28 -10 -26 -59 4 -73 0 -73 -19 0 -22 -16 -38 -18 -18 -2 30 -9 48 -22 60
-12 10 -12 9 -1 -5 10 -14 9 -17 -8 -23 -24 -7 -28 -25 -7 -25 7 0 19 -7 26
-15 17 -21 27 -19 35 6 5 15 10 18 18 10 14 -14 50 -15 42 -1 -3 6 -4 10 -1
10 2 0 13 3 23 7 16 6 16 5 4 -10 -12 -15 -10 -17 18 -17 19 0 30 4 26 10 -4
6 -11 7 -17 4 -7 -4 -8 -2 -4 5 4 6 22 18 39 26 l32 15 -30 -6 c-31 -6 -25 11
6 18 12 2 14 8 8 23 -5 13 -8 15 -8 5z"/>
<path d="M1638 2533 c-10 -2 -18 -9 -18 -14 0 -16 27 -22 47 -10 11 6 13 11 5
11 -7 0 -10 5 -7 10 6 10 2 11 -27 3z"/>
<path d="M2640 2519 c0 -14 159 -57 230 -63 l65 -5 -55 10 c-30 6 -97 23 -147
38 -51 16 -93 25 -93 20z"/>
<path d="M1593 2492 c-4 -9 -11 -20 -17 -24 -7 -5 -7 -8 2 -8 6 0 12 -6 12
-14 0 -8 7 -16 15 -20 11 -4 15 1 15 18 0 14 3 31 6 39 3 8 -2 17 -11 21 -10
3 -18 -1 -22 -12z"/>
<path d="M1865 2453 c-3 -9 -2 -20 3 -25 13 -13 42 1 36 17 -8 21 -32 26 -39
8z"/>
<path d="M1330 2425 c-10 -12 -9 -15 6 -15 11 0 25 4 32 9 11 7 10 10 -3 15
-22 8 -21 8 -35 -9z"/>
<path d="M957 2390 c-5 -21 -47 -29 -47 -8 0 6 -3 8 -7 5 -3 -4 -11 -3 -17 2
-12 10 -142 -41 -186 -71 -13 -10 -30 -18 -37 -18 -7 0 -18 -9 -25 -20 -7 -11
-18 -20 -24 -20 -26 0 -164 -137 -164 -163 0 -12 -9 -28 -21 -35 -13 -8 -18
-19 -14 -31 4 -12 -7 -33 -30 -61 -21 -25 -34 -49 -30 -58 3 -8 -12 -37 -35
-67 -43 -56 -48 -68 -25 -59 9 4 15 0 15 -8 0 -17 41 -58 58 -58 7 0 12 -7 12
-15 0 -14 -20 -66 -30 -75 -3 -3 -11 -16 -18 -30 l-13 -25 18 22 c10 11 31 37
46 57 33 43 49 45 77 9 19 -24 20 -28 6 -31 -9 -2 -16 -9 -16 -15 0 -14 -74
-163 -91 -183 -6 -7 -9 -19 -7 -25 5 -15 168 230 168 253 0 3 -45 31 -99 62
l-100 56 38 63 c21 34 60 111 87 170 47 105 52 111 124 168 153 121 226 167
245 156 20 -11 99 -4 136 13 15 7 25 19 24 31 -2 28 -12 33 -18 9z"/>
<path d="M1430 2394 c0 -14 2 -16 9 -6 6 11 9 9 13 -6 4 -13 18 -22 39 -27 19
-4 41 -13 49 -20 19 -16 160 -67 160 -57 0 11 -16 34 -26 35 -5 1 -8 5 -6 10
1 4 -10 4 -25 1 l-28 -7 29 32 30 31 -32 0 c-18 0 -32 5 -32 11 0 8 -4 8 -12
2 -7 -6 -22 -10 -33 -10 -11 0 -26 4 -32 10 -8 6 -13 6 -13 0 0 -6 10 -15 23
-21 20 -10 21 -11 2 -11 -37 -1 -64 10 -58 25 3 8 -1 14 -10 14 -9 0 -22 3
-31 6 -11 4 -16 0 -16 -12z"/>
<path d="M1960 2359 c0 -5 -4 -8 -8 -5 -5 3 -6 -9 -4 -25 4 -24 0 -31 -16 -36
-24 -6 -34 -56 -17 -80 11 -15 14 -14 32 4 11 11 32 23 46 27 17 4 25 12 24
25 -1 12 -7 17 -19 13 -10 -2 -15 -9 -11 -15 3 -6 1 -7 -5 -3 -16 10 7 46 25
39 17 -7 17 12 0 29 -8 7 -12 19 -9 26 2 7 -5 12 -17 12 -12 0 -21 -5 -21 -11z"/>
<path d="M210 2325 c0 -15 71 -118 77 -111 5 4 -32 64 -47 76 -4 3 -12 14 -18
25 -6 11 -12 15 -12 10z"/>
<path d="M2100 2265 c5 -14 9 -31 7 -38 -1 -6 8 -13 20 -15 17 -2 21 1 17 12
-4 10 2 16 18 19 20 4 19 4 -6 6 -25 1 -27 3 -15 18 12 15 12 16 -3 10 -10 -3
-18 -2 -18 3 0 6 -7 10 -15 10 -11 0 -12 -5 -5 -25z"/>
<path d="M1728 2213 c-15 -47 -16 -48 -64 -54 -27 -3 -80 -15 -119 -28 -181
-60 -212 -70 -246 -76 -35 -6 -36 -6 -32 18 3 14 0 28 -6 31 -6 4 -11 1 -11
-6 0 -7 -10 0 -23 16 -43 53 -136 38 -160 -27 -5 -13 -13 -16 -27 -12 -18 6
-19 3 -14 -24 4 -20 2 -31 -5 -31 -6 0 -11 -8 -11 -17 0 -13 -8 -9 -31 16 -31
34 -31 40 -3 79 9 12 13 22 8 22 -17 0 -31 -15 -42 -45 -10 -29 -10 -29 -11
-5 -1 24 -4 26 -37 22 -19 -2 -38 -11 -41 -19 -8 -21 0 -24 28 -9 26 13 26 13
39 -36 11 -43 14 -47 25 -31 15 20 30 11 57 -35 l18 -29 -47 3 c-50 4 -72 14
-31 14 14 0 29 7 32 16 9 24 8 24 -20 14 -14 -6 -27 -10 -28 -10 -2 0 -9 20
-16 46 -13 47 -24 48 -35 2 -6 -22 -4 -28 10 -28 13 0 16 -7 13 -29 -4 -27 -1
-30 36 -40 23 -6 55 -12 71 -13 18 -2 29 -8 27 -15 -3 -18 8 -16 46 7 41 25
42 33 1 13 -16 -8 -31 -13 -32 -12 -1 2 -8 14 -15 26 -28 51 -8 91 42 85 l31
-3 -25 21 c-14 11 -18 19 -10 18 8 -2 14 5 15 17 0 15 7 20 28 20 31 -1 33 3
11 19 -13 10 -13 12 6 13 11 1 18 -2 15 -7 -3 -5 -1 -11 4 -14 5 -4 12 2 15
12 4 10 13 19 21 19 11 0 12 -4 4 -14 -9 -10 -6 -13 12 -14 13 0 18 -3 12 -6
-7 -2 -13 -9 -13 -14 0 -4 6 -6 14 -3 8 3 17 1 21 -5 3 -6 2 -11 -3 -11 -6 0
-12 -6 -15 -14 -4 -11 0 -13 18 -10 20 3 25 -2 35 -39 l13 -42 67 -2 c64 -1
76 -5 234 -87 91 -47 170 -86 176 -86 6 0 8 10 5 23 -4 17 0 25 21 34 15 7 29
11 31 9 3 -2 -5 -24 -17 -48 -12 -23 -17 -38 -10 -31 16 15 51 93 42 92 -17
-2 -51 14 -46 22 8 14 33 11 58 -8 22 -17 23 -19 7 -43 l-16 -25 31 22 c20 14
35 19 44 13 18 -11 5 -25 -23 -25 -19 0 -22 -7 -25 -45 -2 -31 -6 -40 -13 -30
-6 11 -9 7 -9 -14 0 -16 3 -26 7 -23 3 4 15 0 25 -10 10 -9 18 -13 18 -8 0 4
-7 13 -16 20 -13 9 -14 16 -7 29 5 10 13 17 16 17 21 -3 27 3 47 44 15 31 27
43 38 41 39 -9 62 -19 62 -27 0 -5 11 -3 25 3 45 21 17 45 -119 102 -46 19
-47 19 -43 5 1 -6 -4 -14 -11 -16 -8 -3 -10 1 -5 13 5 13 3 15 -7 9 -8 -5 -29
-8 -46 -7 -33 3 -64 -18 -64 -42 0 -7 -9 -21 -19 -30 -21 -19 -11 -22 -158 53
-24 12 -43 28 -43 36 0 17 -12 19 -26 5 -7 -7 -21 -2 -44 15 -26 20 -46 25
-89 25 -68 0 -91 11 -72 34 7 8 29 19 50 23 42 8 38 7 74 17 15 5 27 12 27 16
0 4 17 10 38 13 20 4 50 10 66 13 27 6 29 5 24 -20 -7 -36 -1 -33 20 12 l17
37 85 0 c47 0 90 -4 97 -8 7 -5 37 -9 68 -9 51 -1 59 -5 94 -40 21 -21 44 -38
51 -38 10 0 10 3 0 15 -7 8 -9 23 -5 36 6 19 4 21 -18 15 -20 -5 -29 -1 -37
13 -7 14 -25 22 -58 26 -87 11 -94 14 -87 35 7 22 -11 44 -37 46 -20 2 -21 -2
-8 -31 6 -13 9 -15 9 -5 1 13 2 13 11 0 5 -8 10 -19 10 -23 0 -10 -70 -5 -76
5 -3 4 -1 8 5 8 9 0 27 78 19 86 -3 2 -12 -17 -20 -43z"/>
<path d="M1967 2188 c-6 -20 13 -24 31 -6 9 9 12 6 12 -15 0 -15 4 -27 10 -27
5 0 8 13 7 29 -2 24 -7 30 -29 33 -19 3 -28 -1 -31 -14z"/>
<path d="M310 2175 c0 -3 9 -15 20 -27 10 -13 26 -32 34 -43 12 -15 15 -16 16
-5 0 8 -14 30 -31 48 -29 31 -39 38 -39 27z"/>
<path d="M1900 2166 c0 -15 21 -20 68 -19 6 1 12 -5 12 -13 0 -7 6 -11 14 -8
8 3 12 13 9 22 -3 12 -15 17 -41 17 -20 0 -43 4 -49 9 -9 6 -13 3 -13 -8z"/>
<path d="M2072 2155 c-6 -14 -15 -25 -19 -24 -21 3 -33 -2 -33 -16 0 -8 4 -15
9 -15 6 0 9 -12 8 -27 -2 -21 2 -28 15 -27 10 1 16 -2 13 -6 -9 -15 15 -22 30
-10 19 16 19 31 0 24 -9 -4 -15 0 -15 10 0 10 -6 13 -17 9 -15 -5 -15 -3 2 10
16 12 17 18 7 30 -9 10 -10 17 -3 22 15 9 33 45 23 45 -5 0 -14 -11 -20 -25z"/>
<path d="M1180 2040 c0 -6 -7 -10 -16 -8 -10 2 -19 -2 -21 -7 -2 -7 12 -11 33
-11 21 0 32 2 26 4 -6 2 -8 10 -5 18 3 8 0 14 -6 14 -6 0 -11 -5 -11 -10z"/>
<path d="M1076 1991 c-11 -18 19 -40 47 -34 l28 6 -31 18 c-35 22 -37 22 -44
10z"/>
<path d="M1206 1991 c-4 -6 -16 -11 -27 -11 -10 0 -19 -4 -19 -10 0 -5 20 -10
45 -10 34 0 45 4 45 16 0 8 -5 12 -11 8 -6 -3 -15 -1 -19 6 -5 9 -9 9 -14 1z"/>
<path d="M1047 1954 c-11 -11 3 -24 24 -24 12 0 19 5 17 13 -5 14 -31 21 -41
11z"/>
<path d="M882 1899 c-13 -5 -28 -6 -34 -3 -5 3 -17 -1 -26 -9 -9 -8 -58 -35
-108 -61 -100 -51 -169 -104 -177 -137 -5 -17 -2 -20 14 -16 11 3 23 -2 29
-11 8 -13 9 -10 4 13 -4 17 -8 32 -10 34 -10 11 123 84 137 75 4 -2 10 5 14
16 4 13 26 26 68 39 34 11 56 20 50 20 -7 1 -13 6 -13 11 0 7 6 7 19 0 11 -5
46 -9 78 -8 l58 1 -45 7 c-38 6 -31 16 8 11 22 -3 13 7 -16 17 -16 5 -37 6
-50 1z"/>
<path d="M1444 1881 c3 -18 6 -44 6 -58 0 -13 4 -22 9 -18 11 6 3 72 -11 95
-6 10 -8 4 -4 -19z"/>
<path d="M1981 1791 c-8 -5 -20 -7 -27 -4 -6 2 -15 -1 -19 -7 -10 -16 10 -34
27 -24 7 5 29 9 48 10 45 2 90 -41 90 -86 0 -16 5 -30 10 -30 14 0 12 -26 -3
-39 -8 -6 -12 -23 -9 -42 4 -30 3 -31 -21 -25 -17 4 -27 1 -31 -9 -3 -8 0 -14
7 -12 13 2 13 -5 1 -38 -4 -13 5 -7 25 15 17 19 33 46 37 60 3 14 9 35 15 48
14 36 -9 117 -45 151 -34 33 -82 47 -105 32z"/>
<path d="M2705 1753 c-21 -14 -70 -43 -107 -63 -37 -20 -65 -39 -62 -43 6 -5
74 28 178 86 22 13 41 28 44 35 6 18 -8 14 -53 -15z"/>
<path d="M1732 1708 c-11 -24 -18 -44 -17 -46 5 -6 35 11 35 20 0 5 -4 6 -10
3 -17 -10 -11 0 11 18 13 12 19 13 18 5 -3 -27 2 -35 21 -33 11 1 22 4 25 8 3
4 2 5 -2 2 -10 -7 -34 16 -27 27 6 10 -13 38 -27 38 -4 0 -17 -19 -27 -42z"/>
<path d="M1914 1723 c4 -8 2 -13 -6 -13 -8 0 -6 -5 5 -11 21 -12 23 -31 2 -22
-12 4 -15 0 -11 -21 2 -14 7 -30 11 -36 11 -17 -21 -11 -48 10 -14 11 -27 20
-29 20 -2 0 -5 -28 -6 -62 -2 -35 -4 -64 -5 -65 -6 -5 -136 30 -159 43 -25 13
-31 13 -59 -2 -44 -22 -136 -29 -208 -15 -51 10 -65 10 -91 -4 -16 -8 -86 -35
-154 -59 -115 -40 -126 -42 -156 -29 -38 16 -43 16 -35 3 3 -5 20 -13 37 -18
l30 -8 -40 -49 c-21 -28 -78 -85 -126 -129 -47 -43 -86 -84 -86 -90 0 -14 211
-226 225 -226 5 0 26 12 47 26 21 15 40 25 42 23 2 -2 9 -175 16 -384 7 -209
14 -382 16 -384 2 -2 4 70 5 160 2 350 -3 562 -11 585 -13 33 -34 39 -82 23
l-40 -13 -83 85 c-46 46 -85 90 -87 98 -2 8 48 65 109 127 62 62 113 120 113
129 0 8 7 15 16 15 8 0 25 5 37 12 12 7 27 13 32 13 18 2 70 18 80 25 6 3 30
12 55 19 25 7 50 17 57 23 8 6 38 5 87 -3 59 -10 86 -10 133 0 32 6 70 14 85
17 15 4 51 -2 80 -12 29 -9 60 -18 70 -19 9 -1 33 -8 55 -17 21 -9 59 -22 86
-28 26 -7 47 -16 47 -21 0 -9 14 -23 60 -59 53 -42 177 -164 182 -179 2 -8 9
-11 16 -7 13 8 15 109 3 141 -8 19 -8 19 -20 -4 -8 -14 -9 -26 -4 -30 13 -8
23 -61 12 -61 -10 0 -226 188 -251 218 -9 11 -14 23 -11 25 3 3 -4 3 -15 0
-11 -2 -23 0 -26 6 -4 6 0 11 8 11 10 0 13 6 10 15 -7 18 0 19 27 4 11 -5 17
-14 14 -20 -4 -5 -3 -9 2 -10 4 0 20 -2 36 -4 15 -2 27 1 27 6 0 5 -5 9 -11 9
-5 0 -7 5 -3 11 4 7 0 9 -14 5 -25 -8 -62 20 -63 49 0 15 -5 11 -18 -15 -19
-41 -45 -53 -37 -18 4 16 2 14 -6 -5 -13 -29 -34 -31 -32 -3 1 9 -2 16 -7 16
-35 0 22 43 59 45 7 0 17 7 22 15 8 13 11 12 24 -5 9 -11 16 -16 16 -11 0 5 6
3 14 -3 8 -7 12 -22 10 -34 -2 -12 -2 -16 2 -9 3 6 12 12 20 12 33 0 9 27 -61
66 -16 9 -19 21 -17 52 1 27 -3 44 -15 53 -11 10 -14 10 -9 2z"/>
<path d="M2015 1670 c-3 -6 -17 -8 -29 -6 -35 6 -49 -7 -31 -30 11 -13 14 -14
13 -4 -2 10 4 14 17 13 11 -1 24 4 28 10 6 8 7 6 4 -5 -3 -9 -1 -19 6 -22 7
-4 -1 -4 -18 -1 -25 4 -27 3 -12 -6 10 -6 24 -8 31 -6 8 3 19 0 25 -6 8 -8 14
-8 22 0 9 9 5 14 -15 19 -21 5 -26 11 -23 25 6 21 -8 35 -18 19z"/>
<path d="M1128 1629 c-25 -27 -41 -37 -53 -33 -14 6 -16 3 -10 -17 4 -13 12
-29 17 -35 11 -15 58 -24 58 -13 0 5 -6 9 -12 9 -7 0 -2 9 12 20 14 10 21 22
17 26 -4 4 -7 2 -7 -4 0 -7 -5 -12 -11 -12 -6 0 -8 7 -5 16 5 14 4 15 -8 5
-12 -10 -13 -9 -9 8 6 25 13 26 38 7 23 -17 55 -1 55 27 0 10 5 15 10 12 6 -4
8 -11 5 -16 -4 -5 5 -9 19 -9 14 0 26 5 26 11 0 5 -4 7 -10 4 -5 -3 -17 3 -27
15 -19 22 -59 29 -47 8 6 -10 5 -10 -7 -1 -12 10 -21 5 -51 -28z m67 2 c10
-18 -15 -22 -37 -7 l-22 16 26 0 c15 0 29 -4 33 -9z"/>
<path d="M2880 1656 c0 -11 -10 -33 -23 -50 -13 -17 -31 -48 -40 -68 -10 -20
-35 -55 -57 -78 -22 -23 -40 -48 -40 -55 0 -8 -9 -17 -20 -20 -26 -8 -26 -25
1 -18 11 3 28 17 37 32 9 14 29 37 44 51 15 14 48 62 73 108 35 64 43 87 36
100 -10 15 -10 15 -11 -2z"/>
<path d="M172 1648 c-18 -23 -81 -196 -77 -215 2 -10 4 -45 6 -78 2 -59 2 -59
10 24 4 46 17 107 28 135 28 71 51 140 47 143 -2 2 -8 -2 -14 -9z"/>
<path d="M1784 1636 c-13 -29 -7 -46 17 -46 14 0 19 7 19 29 0 36 -22 46 -36
17z"/>
<path d="M982 1613 c-8 -32 -10 -34 -12 -13 -1 14 -2 29 -1 33 1 5 -3 6 -9 2
-11 -7 -12 -57 -1 -95 7 -24 7 -24 18 -5 11 19 12 19 32 1 12 -11 21 -15 21
-9 0 5 -9 18 -20 28 -21 19 -27 55 -10 55 5 0 14 9 20 20 9 17 8 20 -9 20 -14
0 -22 -11 -29 -37z"/>
<path d="M1687 1615 l-17 -35 28 17 c15 10 30 22 33 27 4 5 11 6 17 2 5 -3 12
1 16 9 8 21 -6 19 -40 -7 -16 -12 -23 -15 -16 -8 14 16 16 30 4 30 -5 0 -16
-16 -25 -35z"/>
<path d="M383 1592 c-76 -135 -94 -194 -92 -291 1 -25 3 -37 5 -26 30 150 41
186 84 281 33 74 35 94 3 36z"/>
<path d="M595 1600 c3 -19 14 -57 24 -85 11 -27 23 -63 27 -80 4 -16 9 -23 11
-15 2 8 -13 60 -32 115 -20 55 -33 84 -30 65z"/>
<path d="M885 1619 c-4 -6 -5 -12 -4 -14 7 -7 59 8 59 16 0 13 -47 11 -55 -2z"/>
<path d="M1290 1610 c0 -6 -5 -8 -10 -5 -6 4 -16 2 -23 -3 -7 -5 -30 -13 -52
-17 -24 -5 -33 -10 -22 -12 15 -4 16 -8 6 -19 -6 -8 -9 -17 -5 -21 3 -3 6 0 6
8 0 11 2 11 10 -1 8 -12 10 -9 10 11 0 21 6 28 27 32 40 8 49 -3 22 -25 l-24
-19 28 13 c18 7 26 17 22 26 -3 10 0 12 10 8 17 -6 21 19 5 29 -5 3 -10 1 -10
-5z"/>
<path d="M2344 1564 c-20 -31 -34 -58 -31 -60 4 -4 43 51 66 94 23 43 0 21
-35 -34z"/>
<path d="M920 1580 c0 -11 -4 -20 -10 -20 -5 0 -10 -7 -10 -15 0 -8 7 -15 16
-15 12 0 15 -7 12 -29 -4 -26 -2 -28 16 -21 12 4 26 5 32 3 6 -2 17 3 24 12
11 13 8 15 -18 15 -29 0 -31 3 -38 45 -6 45 -24 63 -24 25z"/>
<path d="M285 1529 c-15 -22 -25 -45 -23 -50 2 -5 16 14 31 41 34 60 28 67 -8
9z"/>
<path d="M44 1518 c-13 -19 -35 -106 -39 -153 l-4 -40 10 40 c5 22 19 66 30
99 19 56 20 82 3 54z"/>
<path d="M2930 1481 c5 -11 10 -34 10 -51 0 -17 7 -42 16 -55 9 -14 17 -50 18
-90 2 -39 8 -71 16 -78 10 -10 11 -8 5 8 -4 11 -7 38 -7 60 1 59 -43 225 -59
225 -6 0 -6 -8 1 -19z"/>
<path d="M2271 1429 c-13 -22 -21 -41 -19 -42 2 -1 22 -19 44 -40 l41 -38 -2
66 c-2 65 -15 106 -15 49 0 -16 -3 -39 -6 -52 -6 -22 -8 -22 -25 -6 -23 21
-24 37 -3 70 9 13 15 27 12 29 -2 3 -15 -13 -27 -36z"/>
<path d="M852 1393 c1 -10 -1 -24 -5 -31 -12 -17 1 -52 19 -52 13 0 13 2 0 16
-17 16 -21 35 -8 33 25 -4 52 2 47 11 -4 6 -10 8 -14 6 -4 -3 -13 -1 -21 5
-10 6 -11 9 -2 9 6 0 12 5 12 10 0 6 -7 10 -16 10 -9 0 -14 -7 -12 -17z"/>
<path d="M357 1370 c3 -12 13 -24 22 -27 9 -4 26 -18 38 -32 12 -14 22 -20 23
-13 0 23 25 12 49 -23 20 -30 24 -50 28 -152 3 -65 9 -145 13 -178 7 -51 8
-43 7 58 0 64 -4 147 -9 184 -11 78 2 103 28 56 13 -22 25 -30 47 -30 17 0 35
-7 43 -17 12 -16 13 -16 22 1 6 10 14 14 19 10 11 -11 10 -87 -1 -87 -4 0 -6
-7 -2 -15 4 -13 -30 -124 -63 -200 -24 -56 -31 -77 -31 -93 1 -10 6 -5 15 13
8 17 19 37 24 45 5 8 21 54 36 102 15 48 33 95 40 105 12 17 14 16 20 -10 4
-15 5 -43 2 -61 -3 -21 0 -42 9 -54 8 -12 20 -47 26 -79 6 -32 16 -62 22 -66
7 -5 -3 -20 -28 -42 -22 -19 -34 -35 -27 -35 7 0 19 7 27 15 9 8 22 15 31 15
13 0 14 -8 9 -42 -4 -24 -8 -50 -8 -58 -1 -8 -7 -21 -15 -28 -7 -8 -11 -17 -8
-22 6 -10 -22 -79 -41 -97 -17 -17 -18 -49 -3 -59 7 -4 9 0 5 13 -4 13 0 25
10 34 21 17 44 70 44 100 0 11 10 35 23 52 l22 32 6 -55 c5 -45 22 -130 55
-275 16 -72 16 -175 -1 -230 -10 -31 -18 -63 -18 -71 0 -8 -4 -14 -9 -14 -4 0
-8 -5 -8 -12 0 -25 28 18 49 75 25 70 27 141 5 245 -10 42 -16 88 -15 101 1
26 -34 181 -73 321 -21 75 -37 139 -102 420 -9 36 -17 71 -20 79 -4 12 -16 0
-50 -48 -2 -2 -15 6 -31 16 -15 11 -64 40 -108 65 -44 25 -97 55 -117 67 l-36
22 5 -21z"/>
<path d="M1518 1384 c-4 -3 -35 -6 -70 -6 -35 0 -58 -2 -51 -5 7 -2 9 -11 6
-19 -4 -12 -8 -12 -19 3 -11 15 -13 16 -14 2 0 -8 -16 -23 -35 -32 -19 -9 -35
-22 -36 -29 -3 -45 0 -109 6 -118 7 -12 -21 -50 -37 -50 -41 0 -88 -142 -66
-199 11 -26 20 -50 34 -86 7 -18 8 -17 12 8 2 16 -2 34 -8 42 -7 8 -9 19 -5
25 4 6 -1 17 -11 25 -15 10 -16 16 -6 27 7 9 13 34 14 56 2 70 59 108 122 82
35 -14 65 -15 77 -3 5 5 -3 8 -19 8 -37 -2 -45 4 -31 21 9 11 7 14 -10 14 -12
0 -19 -4 -16 -10 3 -5 0 -7 -9 -4 -11 4 -13 11 -5 31 7 20 6 28 -7 38 -16 11
-16 14 4 35 23 24 20 45 -5 36 -9 -4 -13 -1 -10 6 2 7 21 13 44 14 37 1 39 -1
35 -22 -6 -34 7 -30 19 5 8 21 15 28 29 24 21 -6 16 -33 -5 -33 -24 0 -27 -20
-10 -56 l17 -35 19 22 c10 12 19 28 19 36 0 10 8 11 26 7 19 -5 25 -4 20 5 -4
6 -1 11 7 11 8 0 17 6 20 13 7 19 75 20 102 3 13 -9 26 -25 30 -36 3 -11 13
-20 21 -20 14 0 18 -10 15 -42 -1 -9 5 -29 15 -43 9 -14 12 -25 7 -25 -5 0
-18 -7 -29 -15 -13 -10 -14 -14 -4 -13 8 2 16 -6 18 -19 4 -26 -11 -30 -30 -9
-10 11 -15 11 -23 0 -15 -19 -65 -6 -75 20 -7 17 -9 14 -9 -18 -1 -33 1 -37
14 -26 8 7 22 9 31 6 15 -6 15 -8 0 -31 -20 -30 -20 -35 -1 -35 12 0 55 -74
55 -94 0 -17 -22 -2 -31 21 -11 29 -26 43 -46 43 -8 0 -7 -12 4 -40 9 -22 19
-38 22 -35 4 2 13 0 21 -5 37 -23 54 48 24 100 -20 32 -13 60 14 60 39 0 65
69 56 144 -11 82 -104 164 -172 151 -10 -2 -35 -13 -56 -25 -21 -11 -40 -20
-41 -18 -2 2 -6 15 -10 31 -7 27 -7 27 48 27 54 0 92 20 67 35 -5 3 -10 -1
-10 -10 0 -9 -6 -15 -12 -12 -7 2 -12 12 -12 21 1 9 -2 16 -6 16 -5 0 -15 2
-22 5 -8 3 -17 3 -20 -1z"/>
<path d="M2615 1340 c-3 -11 -11 -20 -16 -20 -5 0 -9 -4 -9 -10 0 -5 7 -10 15
-10 14 0 35 29 35 49 0 19 -18 12 -25 -9z"/>
<path d="M2365 1312 c-16 -11 -37 -53 -31 -60 6 -6 27 17 47 51 10 17 2 23
-16 9z"/>
<path d="M2490 1285 c-30 -8 -75 -23 -100 -34 -36 -17 -40 -21 -20 -21 14 0
43 9 65 19 22 10 57 21 77 25 21 4 40 11 43 16 7 12 4 12 -65 -5z"/>
<path d="M2850 1270 c0 -12 -7 -32 -16 -45 -9 -14 -13 -25 -10 -25 9 0 46 62
46 78 0 6 -4 12 -10 12 -5 0 -10 -9 -10 -20z"/>
<path d="M1368 1225 c-1 -30 0 -55 5 -55 4 0 7 25 7 55 0 71 -7 71 -12 0z"/>
<path d="M2907 1255 c-5 -16 -10 -37 -11 -45 -2 -8 -7 -24 -11 -35 -6 -14 -2
-12 14 7 16 20 21 38 19 65 l-4 38 -7 -30z"/>
<path d="M1585 1225 c-14 -14 -25 -29 -25 -32 0 -4 5 -2 12 5 9 9 19 7 43 -8
29 -18 31 -18 31 -1 0 10 -7 18 -16 18 -41 0 -44 2 -25 23 26 29 10 25 -20 -5z"/>
<path d="M2280 1243 c0 -3 7 -15 16 -25 13 -14 14 -21 5 -32 -7 -8 -10 -33 -7
-62 2 -27 5 -60 6 -74 2 -24 2 -24 11 5 5 17 6 43 3 58 -3 16 -1 41 6 57 10
23 9 33 -5 54 -16 24 -35 35 -35 19z"/>
<path d="M2425 1185 c-16 -13 -26 -24 -22 -25 11 0 87 39 87 45 0 14 -39 2
-65 -20z"/>
<path d="M2148 1164 c-21 -19 -38 -40 -38 -46 0 -19 -83 -89 -113 -95 -26 -5
-27 -7 -13 -21 14 -14 18 -14 39 6 13 12 27 19 30 15 4 -3 7 -2 7 4 0 6 27 39
59 74 33 35 62 71 64 81 3 10 4 18 4 18 -1 0 -19 -16 -39 -36z"/>
<path d="M1672 1173 c-9 -3 -4 -13 14 -30 14 -13 29 -21 33 -17 3 4 0 9 -6 11
-7 3 -13 11 -13 18 0 17 -11 24 -28 18z"/>
<path d="M139 1093 c43 -117 55 -143 62 -143 6 0 -19 74 -52 155 -4 11 -11 30
-14 43 -4 12 -10 22 -15 22 -5 0 4 -35 19 -77z"/>
<path d="M1566 1152 c-10 -16 25 -22 64 -12 l35 10 -36 -4 c-20 -3 -41 0 -47
6 -6 6 -12 6 -16 0z"/>
<path d="M1530 1130 c6 -11 15 -20 20 -20 18 0 10 -19 -11 -31 -12 -6 -19 -7
-15 -1 5 8 -44 25 -51 18 -3 -3 35 -107 47 -128 6 -10 10 -31 10 -48 0 -16 4
-30 8 -30 5 0 9 -33 9 -72 0 -54 -1 -62 -6 -33 -6 39 -6 39 -18 13 -9 -19 -9
-28 0 -37 9 -9 8 -14 -3 -21 -9 -6 -17 -5 -22 3 -4 7 -8 8 -8 2 0 -5 5 -17 10
-25 9 -13 12 -13 24 3 7 9 18 17 23 17 6 0 24 23 41 50 17 28 36 50 43 50 6 0
-8 21 -32 47 -24 27 -47 47 -51 45 -9 -2 -11 19 -8 57 1 14 -2 21 -9 17 -25
-16 -9 31 19 54 35 29 38 49 10 73 -28 24 -44 22 -30 -3z"/>
<path d="M2205 1118 c11 -52 22 -64 19 -21 -3 53 -3 53 -15 53 -7 0 -8 -12 -4
-32z"/>
<path d="M1600 1111 c0 -6 11 -11 25 -11 17 0 25 -6 25 -17 0 -16 1 -16 17 0
21 20 18 23 -29 32 -26 5 -38 4 -38 -4z"/>
<path d="M1430 1054 c0 -17 6 -28 20 -31 24 -6 26 -30 3 -55 -11 -12 -12 -18
-4 -18 9 0 8 -5 -3 -15 -8 -8 -19 -15 -25 -15 -18 0 -22 -18 -10 -44 7 -14 18
-26 26 -26 18 0 17 17 -3 28 -14 8 -14 10 0 21 10 8 20 9 32 3 11 -6 13 -11 5
-16 -17 -11 -13 -26 7 -26 16 -1 16 -1 0 -14 -20 -15 -24 -31 -5 -20 8 6 8 3
-1 -9 -17 -21 -6 -63 12 -48 14 11 15 39 3 58 -5 7 1 18 13 25 13 9 20 23 20
45 0 37 -2 38 -30 21 -15 -10 -22 -10 -32 0 -9 9 -5 13 19 18 25 5 31 11 28
26 -6 30 -12 32 -20 9 -3 -12 -11 -21 -16 -21 -12 0 -12 17 1 25 12 7 10 62
-2 88 -13 27 -38 21 -38 -9z"/>
<path d="M2560 1047 c0 -8 7 -17 15 -21 8 -3 15 -11 15 -18 1 -7 7 -26 14 -43
l14 -30 -1 33 c0 22 -9 43 -29 64 -18 19 -28 25 -28 15z"/>
<path d="M1328 1020 c2 -16 9 -27 14 -24 5 3 7 12 4 20 -3 9 0 11 12 7 13 -4
12 -2 -3 10 -28 23 -32 21 -27 -13z"/>
<path d="M2455 995 c-24 -21 -34 -35 -24 -35 8 0 30 16 49 35 43 45 27 45 -25
0z"/>
<path d="M1570 1000 c0 -15 -5 -31 -12 -38 -9 -9 -9 -12 0 -12 11 0 72 54 72
64 0 3 -9 4 -20 3 -11 -1 -20 -6 -20 -12 0 -5 -5 -3 -10 5 -8 12 -10 10 -10
-10z"/>
<path d="M2148 1009 c-23 -13 -23 -33 -1 -50 15 -13 16 -11 10 13 -5 20 -3 30
10 37 10 6 14 10 8 10 -5 0 -18 -4 -27 -10z"/>
<path d="M2972 917 c-26 -108 -27 -127 -7 -127 11 0 15 12 15 49 0 26 5 62 11
79 6 17 9 44 7 60 -2 22 -9 6 -26 -61z"/>
<path d="M1391 979 c-34 -20 -38 -39 -4 -20 10 5 26 12 36 15 17 5 25 26 10
26 -5 0 -23 -9 -42 -21z"/>
<path d="M2516 958 c-18 -25 -22 -78 -6 -78 5 0 9 10 9 23 -1 12 3 34 9 50 14
33 9 35 -12 5z"/>
<path d="M1290 940 c0 -10 13 -14 43 -11 28 3 20 -9 -18 -25 -24 -10 -37 -23
-41 -42 -4 -15 -11 -33 -17 -39 -6 -9 -6 -13 1 -13 6 0 9 -7 6 -15 -5 -11 -11
-12 -24 -5 -31 17 -56 11 -70 -15 -12 -22 -12 -28 3 -42 9 -10 32 -17 50 -18
28 0 32 -3 29 -25 l-4 -25 31 29 c26 25 35 28 68 21 103 -19 99 -19 84 -1 -10
12 -31 16 -92 16 -43 0 -80 4 -83 9 -6 10 25 20 64 22 15 0 19 3 10 6 -23 8
-40 34 -40 60 0 26 3 27 30 13 23 -12 50 -3 50 17 0 8 -6 13 -12 11 -7 -3 -26
1 -43 8 -16 7 -25 13 -18 14 6 0 19 3 29 7 13 5 15 3 9 -8 -5 -9 -2 -9 10 2
26 25 11 59 -26 59 -16 0 -29 -4 -29 -10z m-62 -183 c2 -12 -3 -17 -17 -17
-15 0 -21 6 -21 21 0 25 33 22 38 -4z"/>
<path d="M2683 926 c15 -38 -28 -84 -144 -155 -51 -32 -239 -241 -215 -241 8
0 56 46 108 101 54 59 123 121 163 148 38 25 80 62 93 81 24 37 26 71 3 78
-10 3 -12 0 -8 -12z"/>
<path d="M2793 920 c9 -13 17 -35 17 -47 0 -26 49 -123 62 -123 12 0 10 7 -11
48 -10 20 -22 51 -25 68 -4 17 -19 42 -33 55 l-26 24 16 -25z"/>
<path d="M2050 914 c0 -6 18 -28 40 -49 24 -24 40 -33 40 -24 0 8 -10 23 -22
33 -13 10 -31 26 -40 34 -10 8 -18 11 -18 6z"/>
<path d="M2750 894 c-15 -39 -76 -111 -116 -137 -47 -30 -43 -42 6 -17 62 32
149 154 126 177 -3 3 -10 -7 -16 -23z"/>
<path d="M2380 875 c-31 -12 -32 -14 -10 -14 14 0 45 6 70 13 l45 15 -35 0
c-19 0 -51 -7 -70 -14z"/>
<path d="M538 825 c-7 -39 3 -120 12 -100 3 6 3 39 0 75 -5 62 -5 63 -12 25z"/>
<path d="M2157 820 c-10 -16 -34 -42 -53 -57 -19 -14 -61 -58 -93 -97 -107
-133 -89 -123 71 39 67 67 98 106 98 122 0 30 -2 29 -23 -7z"/>
<path d="M627 800 c-6 -45 16 -134 35 -146 8 -5 9 -2 3 12 -4 10 -10 51 -13
89 -5 82 -17 104 -25 45z"/>
<path d="M1630 809 c0 -11 -5 -29 -11 -40 -9 -19 -9 -19 10 -10 11 6 34 11 51
11 28 0 31 -2 24 -22 -11 -38 -25 -48 -65 -48 -44 0 -50 -10 -16 -25 16 -7 22
-18 22 -43 0 -18 7 -37 15 -42 8 -5 11 -10 5 -10 -5 0 -20 -3 -32 -6 -16 -5
-23 -2 -23 8 0 11 -7 14 -25 10 -14 -2 -24 -7 -21 -9 5 -5 -18 -33 -27 -33
-11 0 -15 30 -5 36 7 5 8 2 3 -6 -6 -9 -4 -11 4 -5 9 5 6 14 -13 34 -14 15
-26 32 -26 37 0 6 -9 19 -19 28 -20 19 -41 14 -41 -8 0 -19 -34 -46 -57 -46
-27 0 -53 -10 -53 -20 0 -4 8 -7 18 -6 11 1 17 -6 17 -19 0 -28 -23 -25 -38 5
-11 22 -10 27 8 42 26 21 21 25 -40 33 -47 6 -48 5 -25 -8 16 -10 25 -26 28
-48 2 -19 12 -43 23 -55 10 -11 19 -27 19 -35 0 -12 2 -12 9 0 5 7 14 11 20 7
7 -5 9 -1 5 8 -4 9 -1 16 6 16 7 0 10 8 7 19 -3 15 0 19 14 18 14 -1 17 -6 13
-20 -4 -14 -1 -18 13 -16 10 2 24 0 31 -4 7 -5 12 -3 12 6 0 8 -7 18 -16 21
-13 5 -14 9 -4 21 16 19 43 7 37 -16 -3 -11 -1 -19 4 -19 5 0 9 -9 9 -20 0
-22 -19 -27 -37 -9 -18 18 -33 6 -18 -14 9 -13 28 -20 54 -20 39 -2 45 3 42
31 -3 19 34 14 63 -9 29 -23 28 -31 -5 -36 -17 -3 -19 1 -14 19 6 22 6 22 -14
-2 -14 -17 -17 -28 -9 -37 12 -15 2 -33 -18 -33 -10 0 -13 -6 -10 -17 3 -10 8
-31 11 -48 13 -57 16 -65 31 -65 8 0 12 -5 9 -10 -3 -6 1 -10 10 -10 8 0 20
-10 25 -23 5 -12 9 -16 9 -9 1 6 8 12 17 12 10 0 14 -5 10 -15 -4 -12 0 -14
22 -9 15 3 38 11 50 17 21 10 26 8 42 -13 11 -14 15 -27 10 -28 -23 -8 -7 -17
30 -18 30 -1 50 -10 89 -43 35 -29 48 -47 44 -60 -5 -18 24 -38 36 -25 3 4 1
9 -6 11 -6 2 4 19 25 38 25 23 32 35 21 35 -22 0 -49 32 -49 59 0 17 -4 22
-16 17 -15 -6 -16 0 -10 49 4 36 3 55 -5 55 -5 0 -8 4 -5 8 2 4 -19 18 -47 31
-72 33 -121 84 -112 118 4 18 0 32 -14 47 -10 11 -21 32 -23 46 -2 16 -11 26
-28 30 -19 5 -26 13 -28 39 -2 19 3 40 11 49 38 44 32 97 -13 106 -18 3 -30
12 -30 21 0 8 -4 15 -10 15 -5 0 -10 -9 -10 -21z m100 -228 c0 -5 -7 -16 -15
-25 -10 -10 -12 -17 -4 -21 6 -4 8 -13 5 -21 -3 -7 0 -16 6 -20 6 -4 8 -3 4 4
-3 6 -2 13 4 17 5 3 10 1 10 -4 0 -6 5 -10 11 -8 6 1 14 -4 17 -12 3 -10 0
-12 -11 -8 -11 4 -15 1 -12 -13 5 -26 -11 -35 -18 -10 -3 11 -16 24 -30 29
-29 11 -42 38 -27 56 8 9 7 15 -2 19 -7 3 -3 4 10 2 14 -3 25 1 29 10 6 16 23
19 23 5z m-84 -126 c8 -19 30 -19 38 0 7 20 38 7 34 -14 -2 -9 -12 -16 -22
-16 -11 0 -21 -5 -23 -12 -3 -8 5 -10 22 -7 19 3 26 1 22 -8 -2 -7 -14 -13
-27 -12 -20 1 -22 -3 -16 -35 4 -27 3 -32 -5 -18 -16 28 -26 20 -25 -20 1 -20
-4 -38 -10 -40 -19 -6 -24 38 -7 63 8 13 12 24 9 24 -4 0 -4 5 0 11 4 8 9 7
15 -2 7 -11 9 -9 9 6 -1 11 -7 29 -15 39 -8 11 -15 16 -15 11 0 -5 -5 -4 -11
2 -13 13 -5 43 11 43 6 0 13 -7 16 -15z m150 -50 c-5 -15 34 -45 58 -45 13 0
37 -30 42 -52 1 -5 3 -11 4 -15 1 -5 2 -11 1 -15 0 -5 4 -8 9 -8 6 0 10 -17
10 -37 1 -30 8 -46 35 -73 19 -19 35 -41 35 -50 -1 -9 -19 5 -47 35 -36 39
-51 49 -72 47 -17 -2 -42 8 -69 28 -49 36 -55 68 -17 98 13 11 21 22 18 26 -3
3 -1 6 6 6 9 0 9 3 -1 14 -9 10 -17 11 -30 3 -9 -6 -21 -8 -25 -4 -4 5 -1 12
6 16 9 6 10 11 2 15 -6 4 -15 4 -21 1 -10 -6 -14 17 -5 27 3 2 19 3 36 0 19
-3 28 -9 25 -17z m-181 -18 c1 -36 -9 -51 -28 -44 -28 11 -39 44 -21 62 24 24
49 15 49 -18z m119 -22 c3 -8 13 -15 22 -15 18 0 14 -22 -5 -28 -7 -2 -15 6
-18 18 -6 22 -7 22 -19 5 -8 -10 -17 -15 -21 -10 -5 4 -2 10 5 12 6 3 12 11
12 19 0 19 16 18 24 -1z m-27 -76 c14 -14 6 -39 -12 -39 -18 0 -28 17 -21 35
6 18 18 19 33 4z"/>
<path d="M1838 343 c-10 -2 -18 -13 -18 -24 0 -11 5 -17 10 -14 6 4 8 11 5 16
-3 5 1 6 9 3 11 -4 16 0 16 10 0 9 -1 15 -2 15 -2 -1 -11 -3 -20 -6z"/>
<path d="M1780 301 c0 -5 4 -12 10 -16 5 -3 7 -12 4 -19 -6 -17 51 -66 77 -66
23 0 25 18 4 26 -8 4 -12 10 -9 15 3 5 2 8 -3 7 -14 -3 -53 13 -54 23 -1 5 -2
14 -3 21 -1 14 -26 23 -26 9z"/>
<path d="M1334 811 c4 -5 0 -12 -6 -14 -8 -3 -6 -6 5 -6 9 -1 17 -4 17 -9 0
-10 41 -35 47 -28 3 3 -9 19 -27 36 -32 30 -46 38 -36 21z"/>
<path d="M2913 785 c8 -16 18 -45 22 -62 11 -52 29 -54 22 -3 -4 28 -15 52
-32 69 l-27 26 15 -30z"/>
<path d="M1398 784 c12 -9 22 -22 22 -29 0 -6 9 -20 19 -29 15 -13 20 -14 24
-4 3 7 6 4 6 -8 1 -26 31 -56 31 -31 0 16 -39 68 -40 52 0 -5 -8 6 -19 25 -12
23 -27 36 -42 38 l-24 2 23 -16z"/>
<path d="M2881 695 l1 -50 10 38 c7 28 7 42 -1 50 -8 8 -11 -2 -10 -38z"/>
<path d="M218 707 c12 -13 22 -29 22 -35 0 -7 5 -12 10 -12 13 0 13 6 -1 33
-13 23 -28 37 -43 37 -5 0 0 -10 12 -23z"/>
<path d="M1574 715 c-11 -7 -23 -13 -29 -14 -17 -1 -17 -51 0 -77 24 -37 45
-31 44 14 -1 27 -3 30 -6 12 -8 -42 -20 -43 -26 -3 -7 40 7 68 22 45 7 -11 9
-10 14 2 4 9 13 16 22 16 8 0 15 4 15 8 0 13 -36 11 -56 -3z"/>
<path d="M480 672 c-13 -20 -59 -75 -102 -122 -42 -46 -75 -86 -73 -89 7 -7
168 168 194 210 30 50 14 51 -19 1z"/>
<path d="M594 621 c1 -78 3 -89 14 -74 15 20 11 118 -6 148 -6 13 -9 -10 -8
-74z"/>
<path d="M535 658 c-11 -77 -12 -128 -4 -128 13 0 22 42 23 108 1 71 -10 83
-19 20z"/>
<path d="M1312 693 c-24 -10 0 -23 44 -23 47 0 60 15 19 22 -14 3 -25 1 -25
-3 0 -5 -7 -9 -16 -9 -8 0 -12 5 -9 10 7 11 6 11 -13 3z"/>
<path d="M2532 678 c-11 -15 1 -115 17 -131 9 -9 9 -1 -5 69 -3 18 -1 41 5 53
13 23 0 29 -17 9z"/>
<path d="M2000 571 c-51 -53 -53 -67 -8 -36 21 14 81 95 71 95 -5 0 -33 -27
-63 -59z"/>
<path d="M2596 598 c3 -18 10 -48 14 -65 5 -18 6 -42 3 -53 -3 -11 0 -20 6
-20 14 0 14 55 -1 119 -13 56 -31 71 -22 19z"/>
<path d="M1221 601 c-6 -4 -13 -17 -16 -29 -2 -12 -6 -26 -9 -31 -3 -5 3 -19
13 -32 17 -22 21 -22 45 -9 21 11 26 20 24 44 -2 19 -9 30 -20 32 -21 3 -22 0
-5 -26 10 -17 9 -22 -3 -30 -20 -12 -44 8 -30 25 6 7 8 19 4 28 -4 11 1 16 18
19 18 2 19 5 7 10 -9 3 -21 3 -28 -1z"/>
<path d="M2186 564 c-10 -27 -7 -45 14 -71 11 -14 20 -21 20 -16 0 5 -5 14
-12 21 -6 6 -11 27 -10 47 1 38 -2 44 -12 19z"/>
<path d="M2482 543 c-47 -19 -202 -122 -202 -133 0 -15 3 -14 109 53 54 34
107 67 117 73 29 18 13 23 -24 7z"/>
<path d="M2911 492 c-80 -44 -110 -72 -79 -72 8 0 49 19 91 42 53 28 77 47 77
60 0 10 -1 18 -2 17 -2 0 -41 -22 -87 -47z"/>
<path d="M1055 505 c-5 -2 -43 -13 -84 -25 -53 -15 -71 -24 -63 -32 8 -8 22
-7 49 5 21 9 55 19 75 23 20 3 45 12 55 20 17 13 17 13 -2 13 -11 0 -24 -2
-30 -4z"/>
<path d="M1354 475 c3 -8 1 -15 -4 -15 -5 0 -21 -11 -36 -25 -15 -14 -24 -25
-20 -25 10 0 47 23 66 41 17 16 16 39 -2 39 -6 0 -8 -7 -4 -15z"/>
<path d="M2459 470 c-37 -20 -53 -37 -155 -167 -55 -70 -85 -133 -63 -133 5 0
15 12 23 28 8 15 38 54 66 87 29 33 66 81 82 108 16 26 33 47 36 47 4 0 21 11
37 25 36 29 24 31 -26 5z"/>
<path d="M2150 455 c-22 -27 -5 -37 19 -11 19 20 21 26 9 26 -9 0 -21 -7 -28
-15z"/>
<path d="M1427 449 c-9 -5 -21 -8 -26 -4 -5 3 -11 -3 -13 -12 -4 -19 41 -63
63 -63 9 1 5 8 -9 20 -34 28 -23 47 11 20 l27 -21 0 23 c0 22 -16 48 -29 48
-4 0 -14 -5 -24 -11z"/>
<path d="M2688 407 c-66 -20 -88 -37 -49 -37 10 0 41 7 67 14 27 8 61 18 77
21 15 3 27 10 27 15 0 15 -47 10 -122 -13z"/>
<path d="M727 340 c9 -52 22 -72 23 -34 0 16 -7 39 -15 50 -14 18 -14 16 -8
-16z"/>
<path d="M2497 338 c20 -42 64 -101 70 -95 5 6 -62 113 -76 122 -5 3 -3 -9 6
-27z"/>
<path d="M2953 288 c-42 -28 -57 -58 -30 -58 17 0 80 65 76 78 -2 6 -23 -3
-46 -20z"/>
<path d="M826 257 c-5 -15 -6 -31 -2 -34 3 -4 -1 -18 -10 -32 l-16 -26 21 21
c17 16 22 30 19 60 -4 38 -4 38 -12 11z"/>
<path d="M526 198 c-52 -133 -64 -168 -57 -164 16 10 93 203 89 222 -2 8 -16
-18 -32 -58z"/>
<path d="M2805 234 c-33 -7 -109 -14 -170 -15 -94 -1 -104 -2 -70 -11 85 -21
337 5 319 33 -6 10 -2 11 -79 -7z"/>
<path d="M2935 193 c-79 -58 -171 -100 -234 -109 -48 -6 -81 -29 -81 -56 0
-14 28 -9 33 6 6 16 52 32 118 41 27 3 78 24 125 51 93 53 107 65 102 91 -3
18 -9 15 -63 -24z"/>
<path d="M2388 208 c-27 -6 -48 -14 -48 -19 0 -5 -4 -9 -10 -9 -5 0 -10 7 -10
15 0 25 -20 17 -30 -12 -21 -57 -35 -74 -84 -104 -28 -17 -67 -42 -86 -56
l-35 -26 30 7 c41 10 144 78 194 129 37 37 53 45 129 63 78 19 82 22 42 22
-25 0 -66 -5 -92 -10z"/>
<path d="M993 152 c-56 -61 -82 -98 -61 -86 17 10 111 124 106 129 -2 2 -22
-18 -45 -43z"/>
<path d="M1647 188 c-7 -4 16 -8 51 -8 34 0 62 3 62 8 0 9 -98 10 -113 0z"/>
<path d="M2190 191 c0 -5 6 -23 14 -41 16 -39 28 -19 12 22 -10 27 -26 38 -26
19z"/>
<path d="M1285 179 c-33 -5 -26 -6 34 -8 75 -1 91 4 36 11 -16 2 -48 1 -70 -3z"/>
<path d="M2570 150 c0 -5 -14 -17 -31 -25 -38 -20 -32 -28 15 -20 29 6 36 12
36 31 0 13 -4 24 -10 24 -5 0 -10 -4 -10 -10z"/>
<path d="M826 125 c-5 -16 -17 -50 -28 -74 -10 -24 -17 -45 -15 -47 8 -8 58
117 54 134 -3 12 -6 8 -11 -13z"/>
<path d="M2018 89 c-36 -36 -35 -41 2 -23 35 18 41 26 32 41 -4 6 -17 0 -34
-18z"/>
<path d="M1460 103 c-14 -2 -44 -13 -67 -24 -24 -10 -47 -19 -53 -19 -5 0 -10
-5 -10 -11 0 -5 -4 -7 -10 -4 -5 3 -10 1 -10 -4 0 -16 2 -15 95 25 17 7 42 16
58 19 24 6 51 27 30 24 -4 -1 -19 -4 -33 -6z"/>
<path d="M2539 40 c-24 -21 -38 -39 -31 -40 21 0 92 49 92 65 0 24 -14 18 -61
-25z"/>
<path d="M2925 44 c-43 -21 -87 -35 -115 -36 -38 -1 -40 -2 -11 -5 53 -7 167
16 186 37 32 36 10 37 -60 4z"/>
</g>
</svg>
